<svg id="b" width="79.403mm" height="79.105mm" version="1.1" viewBox="0 0 281.34989 280.29216" xmlns="http://www.w3.org/2000/svg"><ellipse id="aa" cx="140.67" cy="140.15" rx="113.17" ry="112.65" fill="none" stroke="#dadada" stroke-linecap="round" stroke-linejoin="round" stroke-width="3.8721"/><circle id="n" cx="220.7" cy="60.494" r="27.5" fill="#ef8400"/><text id="ae" x="202.84616" y="56.761765" fill="#ffffff" font-size="13.946px" letter-spacing="0px" stroke-width="1px" word-spacing="0px"><tspan id="q" x="202.84616" y="56.761765">Spiel-</tspan><tspan id="ai" x="202.84616" y="74.194885">leiter</tspan></text><circle id="u" cx="140.67" cy="27.5" r="27.5" fill="#63c100"/><text id="s" x="118.74396" y="31.10614" fill="#ffffff" font-size="13.946px" letter-spacing="0px" stroke-width="1px" word-spacing="0px"><tspan id="w" x="118.74396" y="31.10614">Spieler</tspan></text><circle id="af" cx="60.648" cy="60.494" r="27.5" fill="#ef8400"/><text id="v" x="42.793121" y="56.761719" fill="#ffffff" font-size="13.946px" letter-spacing="0px" stroke-width="1px" word-spacing="0px"><tspan id="x" x="42.793121" y="56.761719">Spiel-</tspan><tspan id="ah" x="42.793121" y="74.194839">leiter</tspan></text><circle id="t" cx="27.5" cy="140.15" r="27.5" fill="#63c100"/><text id="y" x="5.5693684" y="143.75186" fill="#ffffff" font-size="13.946px" letter-spacing="0px" stroke-width="1px" word-spacing="0px"><tspan id="z" x="5.5693684" y="143.75186">Spieler</tspan></text><circle id="o" cx="60.648" cy="219.8" r="27.5" fill="#ef8400"/><text id="i" x="42.793114" y="216.06686" fill="#ffffff" font-size="13.946px" letter-spacing="0px" stroke-width="1px" word-spacing="0px"><tspan id="ab" x="42.793114" y="216.06686">Spiel-</tspan><tspan id="h" x="42.793114" y="233.49997">leiter</tspan></text><circle id="ad" cx="140.67" cy="252.79" r="27.5" fill="#63c100"/><text id="p" x="120.17536" y="257.52167" fill="#ffffff" font-size="13.946px" letter-spacing="0px" stroke-width="1px" word-spacing="0px"><tspan id="g" x="120.17536" y="257.52167">Spieler</tspan></text><circle id="c" cx="220.7" cy="219.8" r="27.5" fill="#ef8400"/><text id="l" x="202.84615" y="216.06686" fill="#ffffff" font-size="13.946px" letter-spacing="0px" stroke-width="1px" word-spacing="0px"><tspan id="d" x="202.84615" y="216.06686">Spiel-</tspan><tspan id="e" x="202.84615" y="233.49997">leiter</tspan></text><circle id="ag" cx="253.85" cy="140.15" r="27.5" fill="#63c100"/><text id="m" x="231.91853" y="143.75186" fill="#ffffff" font-size="13.946px" letter-spacing="0px" stroke-width="1px" word-spacing="0px"><tspan id="r" x="231.91853" y="143.75186">Spieler</tspan></text><text id="a" x="140.55919" y="136.23044" fill="#0a49a8" font-size="13.946px" letter-spacing="0px" stroke-width="1px" text-align="center" text-anchor="middle" word-spacing="0px"><tspan id="aj" x="140.55919" y="136.23044" text-align="center">3-4</tspan><tspan id="ac" x="140.55919" y="153.66354" text-align="center">Runden</tspan></text><circle id="f" transform="matrix(.9809 -.19451 .19451 .9809 0 0)" cx="111.17" cy="164.88" r="47.716" fill="none" stroke="#0a49a8" stroke-width="3.8721"/><path id="j" transform="matrix(.63302 -.12553 .12553 .63302 -24.128 29.996)" d="m236.04 144.26-18.405 10.626v-21.252z" fill="#fff"/><path id="k" transform="matrix(.63302 -.12553 .12553 .63302 -24.128 29.996)" d="m232.69 143.75-18.405 10.626v-21.252z" fill="#0a49a8"/></svg>